<svg width="29" height="29" viewBox="0 0 29 29" fill="none" xmlns="http://www.w3.org/2000/svg">
<path d="M4.64 12.18C4.64 7.29247 4.64 4.84871 5.81297 3.09323C6.32076 2.33327 6.97327 1.68076 7.73323 1.17297C9.48871 0 11.9325 0 16.82 0C21.7075 0 24.1513 0 25.9068 1.17297C26.6667 1.68076 27.3192 2.33327 27.827 3.09323C29 4.84871 29 7.29247 29 12.18C29 17.0675 29 19.5113 27.827 21.2668C27.3192 22.0267 26.6667 22.6792 25.9068 23.187C24.1513 24.36 21.7075 24.36 16.82 24.36C11.9325 24.36 9.48871 24.36 7.73323 23.187C6.97327 22.6792 6.32076 22.0267 5.81297 21.2668C4.64 19.5113 4.64 17.0675 4.64 12.18Z" fill="#553B33"/>
<path d="M0 13.92C0 9.54537 0 7.35805 1.35902 5.99902C2.71805 4.64 4.90537 4.64 9.28 4.64H15.08C19.4546 4.64 21.6419 4.64 23.001 5.99902C24.36 7.35805 24.36 9.54537 24.36 13.92V19.72C24.36 24.0946 24.36 26.2819 23.001 27.641C21.6419 29 19.4546 29 15.08 29H9.28C4.90537 29 2.71805 29 1.35902 27.641C0 26.2819 0 24.0946 0 19.72V13.92Z" fill="#2F241F"/>
</svg>
